<svg version="1.1" id="Layer_1" xmlns="http://www.w3.org/2000/svg" xmlns:xlink="http://www.w3.org/1999/xlink" x="0px" y="0px"
	 width="100%" viewBox="0 0 1280 800" enable-background="new 0 0 1280 800" xml:space="preserve">
<path fill="#242424" opacity="1.000000" stroke="none" 
	d="
M951.000000,801.000000 
	C634.037964,801.000000 317.575958,801.000000 1.056962,801.000000 
	C1.056962,534.403320 1.056962,267.806610 1.056962,1.104956 
	C427.545471,1.104956 854.090942,1.104956 1280.818237,1.104956 
	C1280.818237,267.666565 1280.818237,534.333252 1280.818237,801.000000 
	C1171.139771,801.000000 1061.319824,801.000000 951.000000,801.000000 
M898.088074,640.068542 
	C902.413879,639.978943 906.816528,640.373108 911.049622,639.700134 
	C920.156372,638.252258 929.414368,629.712830 929.370117,616.400208 
	C929.084290,530.287903 929.227417,444.174164 929.228516,358.060913 
	C929.229248,301.096252 929.237854,244.131577 929.220825,187.166901 
	C929.215759,170.349777 920.870789,162.007980 904.172607,161.990509 
	C901.843201,161.988068 899.513855,161.883392 897.092529,160.918640 
	C896.850525,155.306122 897.531921,149.457489 896.169983,144.131348 
	C893.522583,133.778244 884.797607,128.375977 872.055908,126.974144 
	C872.050964,119.974487 871.534363,112.929741 872.146179,105.984428 
	C873.472717,90.928329 860.601685,80.809303 847.001282,80.835968 
	C709.673401,81.105286 572.344788,81.000099 435.016388,81.000191 
	C433.849762,81.000191 432.681427,80.960068 431.516785,81.008392 
	C419.460205,81.508682 410.016663,91.330383 409.958527,103.400536 
	C409.919189,111.563934 409.863831,119.727257 408.969635,127.935585 
	C395.828644,127.111504 383.144043,138.588516 384.888458,152.858765 
	C385.247955,155.799728 384.857178,158.832413 383.908539,161.929642 
	C379.581238,162.015900 375.193878,161.675491 370.938843,162.274811 
	C361.270966,163.636490 352.573303,172.998184 352.604584,185.508820 
	C352.882874,296.804047 352.762360,408.100311 352.764618,519.396240 
	C352.765289,552.385071 352.707214,585.374268 352.830414,618.362671 
	C352.877014,630.846619 362.291656,639.891235 374.822906,640.005371 
	C378.152771,640.035706 381.482178,640.118164 384.902618,641.083740 
	C385.127899,646.693298 384.451385,652.526062 385.772400,657.864502 
	C388.267365,667.946960 397.429718,673.632874 409.944122,675.025818 
	C409.948975,682.024719 409.952911,689.023682 409.958862,696.022583 
	C409.972443,712.060120 418.921783,720.999512 434.969360,720.999634 
	C572.281616,721.000244 709.593811,721.000000 846.906067,720.999939 
	C848.072571,720.999939 849.240601,721.038696 850.405273,720.992004 
	C862.418091,720.510193 871.954895,710.632874 872.035706,698.596497 
	C872.090576,690.434082 872.135254,682.271729 873.026611,674.064819 
	C888.058533,673.603394 897.015808,664.481995 897.052795,649.622620 
	C897.060669,646.473145 897.138489,643.323853 898.088074,640.068542 
z"/>
<path fill="#FFFFFF" opacity="1.000000" stroke="none" 
	d="
M409.815643,127.890610 
	C409.863831,119.727257 409.919189,111.563934 409.958527,103.400536 
	C410.016663,91.330383 419.460205,81.508682 431.516785,81.008392 
	C432.681427,80.960068 433.849762,81.000191 435.016388,81.000191 
	C572.344788,81.000099 709.673401,81.105286 847.001282,80.835968 
	C860.601685,80.809303 873.472717,90.928329 872.146179,105.984428 
	C871.534363,112.929741 872.050964,119.974487 872.062988,127.904572 
	C872.107605,139.853775 872.145264,150.872543 872.129944,162.364914 
	C872.060059,163.671173 872.028198,164.503860 872.028198,165.336533 
	C872.025513,322.096924 872.024780,478.857330 872.031250,635.617737 
	C872.031311,637.114807 872.130005,638.611877 872.126343,640.567627 
	C872.108093,652.053955 872.146240,663.081604 872.184448,674.109314 
	C872.135254,682.271729 872.090576,690.434082 872.035706,698.596497 
	C871.954895,710.632874 862.418091,720.510193 850.405273,720.992004 
	C849.240601,721.038696 848.072571,720.999939 846.906067,720.999939 
	C709.593811,721.000000 572.281616,721.000244 434.969360,720.999634 
	C418.921783,720.999512 409.972443,712.060120 409.958862,696.022583 
	C409.952911,689.023682 409.948975,682.024719 409.937256,674.095337 
	C409.892670,662.145935 409.854919,651.126953 409.870117,639.634521 
	C409.939972,638.328491 409.971771,637.495789 409.971771,636.663147 
	C409.974396,479.902954 409.975220,323.142731 409.968719,166.382538 
	C409.968658,164.885483 409.869965,163.388412 409.873718,161.432709 
	C409.891968,149.946228 409.853790,138.918427 409.815643,127.890610 
z"/>
<path fill="#7C7C7C" opacity="1.000000" stroke="none" 
	d="
M384.811798,640.176636 
	C381.482178,640.118164 378.152771,640.035706 374.822906,640.005371 
	C362.291656,639.891235 352.877014,630.846619 352.830414,618.362671 
	C352.707214,585.374268 352.765289,552.385071 352.764618,519.396240 
	C352.762360,408.100311 352.882874,296.804047 352.604584,185.508820 
	C352.573303,172.998184 361.270966,163.636490 370.938843,162.274811 
	C375.193878,161.675491 379.581238,162.015900 384.450562,161.963287 
	C384.992615,161.996918 385.171875,162.171967 385.107117,162.622803 
	C385.021606,163.906143 384.982635,164.738647 384.982635,165.571152 
	C384.979553,322.160889 384.978729,478.750641 384.986877,635.340393 
	C384.986938,636.836182 385.107422,638.331970 385.081970,639.915283 
	C384.992279,640.002747 384.811798,640.176636 384.811798,640.176636 
z"/>
<path fill="#7C7C7C" opacity="1.000000" stroke="none" 
	d="
M897.184509,161.826050 
	C899.513855,161.883392 901.843201,161.988068 904.172607,161.990509 
	C920.870789,162.007980 929.215759,170.349777 929.220825,187.166901 
	C929.237854,244.131577 929.229248,301.096252 929.228516,358.060913 
	C929.227417,444.174164 929.084290,530.287903 929.370117,616.400208 
	C929.414368,629.712830 920.156372,638.252258 911.049622,639.700134 
	C906.816528,640.373108 902.413879,639.978943 897.546753,640.034790 
	C897.005432,640.001099 896.827698,639.826782 896.892090,639.375488 
	C896.977905,637.925171 897.018005,636.926086 897.018066,635.927063 
	C897.020935,479.504913 897.021545,323.082764 897.013062,166.660629 
	C897.013000,165.164871 896.892273,163.669113 896.916809,162.086288 
	C897.005798,161.999222 897.184509,161.826050 897.184509,161.826050 
z"/>
<path fill="#7C7C7C" opacity="1.000000" stroke="none" 
	d="
M409.392639,127.913101 
	C409.853790,138.918427 409.891968,149.946228 409.418396,161.460358 
	C400.995087,162.021790 393.083466,162.096878 385.171875,162.171967 
	C385.171875,162.171967 384.992615,161.996918 384.902405,161.909866 
	C384.857178,158.832413 385.247955,155.799728 384.888458,152.858765 
	C383.144043,138.588516 395.828644,127.111504 409.392639,127.913101 
z"/>
<path fill="#7C7C7C" opacity="1.000000" stroke="none" 
	d="
M872.182861,161.891327 
	C872.145264,150.872543 872.107605,139.853775 872.127075,128.362320 
	C884.797607,128.375977 893.522583,133.778244 896.169983,144.131348 
	C897.531921,149.457489 896.850525,155.306122 897.138550,161.372345 
	C897.184509,161.826050 897.005798,161.999222 896.465271,162.028076 
	C888.010803,162.001724 880.096802,161.946518 872.182861,161.891327 
z"/>
<path fill="#7C7C7C" opacity="1.000000" stroke="none" 
	d="
M409.817200,640.107971 
	C409.854919,651.126953 409.892670,662.145935 409.873230,673.637573 
	C397.429718,673.632874 388.267365,667.946960 385.772400,657.864502 
	C384.451385,652.526062 385.127899,646.693298 384.857208,640.630188 
	C384.811798,640.176636 384.992279,640.002747 385.533630,639.973022 
	C393.989014,639.998230 401.903107,640.053101 409.817200,640.107971 
z"/>
<path fill="#7C7C7C" opacity="1.000000" stroke="none" 
	d="
M872.605530,674.087036 
	C872.146240,663.081604 872.108093,652.053955 872.581665,640.539856 
	C881.004761,639.977905 888.916260,639.902344 896.827698,639.826782 
	C896.827698,639.826782 897.005432,640.001099 897.094727,640.087769 
	C897.138489,643.323853 897.060669,646.473145 897.052795,649.622620 
	C897.015808,664.481995 888.058533,673.603394 872.605530,674.087036 
z"/>
<path fill="#B0B0B0" opacity="1.000000" stroke="none" 
	d="
M409.870087,639.634521 
	C401.903107,640.053101 393.989014,639.998230 385.623322,639.885559 
	C385.107422,638.331970 384.986938,636.836182 384.986877,635.340393 
	C384.978729,478.750641 384.979553,322.160889 384.982635,165.571152 
	C384.982635,164.738647 385.021606,163.906143 385.107117,162.622803 
	C393.083466,162.096878 400.995087,162.021790 409.362000,161.919022 
	C409.869965,163.388412 409.968658,164.885483 409.968719,166.382538 
	C409.975220,323.142731 409.974396,479.902954 409.971771,636.663147 
	C409.971771,637.495789 409.939972,638.328491 409.870087,639.634521 
z"/>
<path fill="#B0B0B0" opacity="1.000000" stroke="none" 
	d="
M896.892090,639.375488 
	C888.916260,639.902344 881.004761,639.977905 872.638000,640.081177 
	C872.130005,638.611877 872.031311,637.114807 872.031250,635.617737 
	C872.024780,478.857330 872.025513,322.096924 872.028198,165.336533 
	C872.028198,164.503860 872.060059,163.671173 872.129883,162.364914 
	C880.096802,161.946518 888.010803,162.001724 896.376282,162.115143 
	C896.892273,163.669113 897.013000,165.164871 897.013062,166.660629 
	C897.021545,323.082764 897.020935,479.504913 897.018066,635.927063 
	C897.018005,636.926086 896.977905,637.925171 896.892090,639.375488 
z"/>
</svg>