<?xml version="1.0" standalone="no"?>
<!DOCTYPE svg PUBLIC "-//W3C//DTD SVG 20010904//EN"
 "http://www.w3.org/TR/2001/REC-SVG-20010904/DTD/svg10.dtd">
<svg version="1.0" xmlns="http://www.w3.org/2000/svg"
 width="256.000000pt" height="256.000000pt" viewBox="0 0 256.000000 256.000000"
 preserveAspectRatio="xMidYMid meet">

<g transform="translate(0.000000,256.000000) scale(0.100000,-0.100000)"
fill="#000000" stroke="none">
<path d="M132 2268 c-9 -9 -12 -236 -12 -960 l0 -948 360 0 360 0 0 960 0 960
-348 0 c-257 0 -351 -3 -360 -12z m582 -450 c8 -13 8 -23 0 -35 -10 -16 -34
-18 -229 -21 -224 -2 -245 1 -245 37 0 39 17 41 244 39 196 -3 220 -5 230 -20z
m0 -120 c8 -13 8 -23 0 -35 -10 -16 -34 -18 -229 -21 -224 -2 -245 1 -245 37
0 39 17 41 244 39 196 -3 220 -5 230 -20z m35 -352 c7 -8 11 -31 9 -52 -6 -72
-70 -72 -76 0 -4 41 11 66 38 66 10 0 23 -6 29 -14z m-35 -809 c8 -12 8 -22 0
-35 -10 -15 -34 -17 -229 -20 -224 -2 -245 1 -245 37 0 39 17 41 244 39 196
-3 220 -5 230 -21z"/>
<path d="M920 1320 l0 -960 360 0 360 0 0 960 0 960 -360 0 -360 0 0 -960z
m594 498 c8 -13 8 -23 0 -35 -10 -16 -34 -18 -229 -21 -224 -2 -245 1 -245 37
0 39 17 41 244 39 196 -3 220 -5 230 -20z m0 -120 c8 -13 8 -23 0 -35 -10 -16
-34 -18 -229 -21 -224 -2 -245 1 -245 37 0 39 17 41 244 39 196 -3 220 -5 230
-20z m-5 -352 c7 -8 11 -31 9 -52 -6 -72 -70 -72 -76 0 -4 41 11 66 38 66 10
0 23 -6 29 -14z m5 -809 c8 -12 8 -22 0 -35 -10 -15 -34 -17 -229 -20 -224 -2
-245 1 -245 37 0 39 17 41 244 39 196 -3 220 -5 230 -21z"/>
<path d="M1720 1320 l0 -960 360 0 360 0 0 948 c0 724 -3 951 -12 960 -9 9
-103 12 -360 12 l-348 0 0 -960z m594 498 c8 -13 8 -23 0 -35 -10 -16 -34 -18
-229 -21 -224 -2 -245 1 -245 37 0 39 17 41 244 39 196 -3 220 -5 230 -20z m0
-120 c8 -13 8 -23 0 -35 -10 -16 -34 -18 -229 -21 -224 -2 -245 1 -245 37 0
39 17 41 244 39 196 -3 220 -5 230 -20z m-5 -352 c7 -8 11 -31 9 -52 -6 -72
-70 -72 -76 0 -4 41 11 66 38 66 10 0 23 -6 29 -14z m5 -809 c8 -12 8 -22 0
-35 -10 -15 -34 -17 -229 -20 -224 -2 -245 1 -245 37 0 39 17 41 244 39 196
-3 220 -5 230 -21z"/>
<path d="M120 200 l0 -80 80 0 80 0 0 80 0 80 -80 0 -80 0 0 -80z"/>
<path d="M2280 200 l0 -80 80 0 80 0 0 80 0 80 -80 0 -80 0 0 -80z"/>
</g>
</svg>
