<?xml version="1.0" standalone="no"?>
<!DOCTYPE svg PUBLIC "-//W3C//DTD SVG 20010904//EN"
 "http://www.w3.org/TR/2001/REC-SVG-20010904/DTD/svg10.dtd">
<svg version="1.0" xmlns="http://www.w3.org/2000/svg"
 width="512.000000pt" height="512.000000pt" viewBox="0 0 512.000000 512.000000"
 preserveAspectRatio="xMidYMid meet">

<g transform="translate(0.000000,512.000000) scale(0.100000,-0.100000)"
fill="#000000" stroke="none">
<path d="M2460 5009 c-115 -8 -210 -25 -490 -88 -145 -33 -259 -52 -350 -60
-572 -47 -1037 -306 -1330 -739 -94 -139 -185 -351 -234 -547 -24 -95 -46
-259 -53 -390 -5 -106 -4 -126 12 -151 10 -16 221 -200 470 -409 l453 -380 4
-203 3 -204 28 -24 c41 -35 99 -33 138 5 l29 29 0 790 c0 773 0 790 -20 815
-39 49 -114 52 -156 6 -16 -18 -20 -41 -24 -170 l-5 -149 -305 261 c-168 143
-311 266 -319 274 -12 12 -11 22 9 72 127 320 356 573 660 731 136 71 289 128
294 109 31 -118 53 -186 81 -251 131 -301 476 -627 824 -777 151 -65 237 -84
381 -84 144 0 230 19 381 84 339 146 671 454 812 753 36 76 87 226 87 257 0
10 3 20 6 24 10 10 174 -53 286 -110 304 -155 540 -415 668 -736 23 -57 23
-59 4 -77 -10 -10 -154 -134 -319 -274 l-300 -256 -5 149 c-4 129 -8 152 -24
170 -42 46 -117 43 -156 -6 -20 -25 -20 -42 -20 -1463 0 -1562 3 -1487 -55
-1570 -15 -21 -43 -49 -63 -63 -85 -55 -16 -52 -1266 -55 -741 -1 -1178 1
-1213 8 -103 19 -177 73 -217 159 -19 42 -21 69 -26 303 l-5 258 -28 27 c-37
38 -97 37 -136 -1 l-26 -26 -3 -238 c-2 -151 1 -259 8 -297 39 -202 205 -358
410 -385 100 -13 2300 -13 2400 0 201 26 368 180 409 378 7 36 11 324 12 905
l0 852 435 365 c240 201 451 382 470 403 32 35 34 41 34 106 0 180 -45 447
-105 622 -86 248 -206 441 -389 625 -293 292 -667 457 -1126 495 -92 8 -201
27 -345 59 -273 63 -359 79 -464 86 -47 3 -97 6 -111 8 -14 1 -68 -1 -120 -5z
m380 -223 c41 -9 146 -32 233 -53 l159 -37 -6 -30 c-11 -55 -74 -170 -135
-242 -105 -126 -289 -257 -437 -310 -81 -30 -107 -30 -188 0 -203 73 -445 276
-530 445 -26 50 -52 129 -45 135 7 7 308 75 424 96 91 16 140 19 280 15 94 -2
204 -11 245 -19z m-1150 -133 c1 -38 68 -193 114 -263 161 -246 545 -500 756
-500 216 0 586 246 757 503 45 68 112 222 113 260 0 16 6 18 38 13 20 -3 67
-8 105 -12 37 -3 70 -10 73 -15 10 -17 -37 -164 -81 -254 -143 -288 -467 -563
-798 -677 -82 -29 -104 -32 -207 -32 -103 0 -125 3 -207 32 -331 114 -655 389
-798 677 -47 96 -92 242 -78 255 4 5 46 13 93 18 124 14 120 14 120 -5z
m-1027 -1543 l276 -235 0 -183 1 -184 -25 19 c-13 10 -180 149 -370 308 l-345
290 5 90 c6 90 21 204 31 238 5 14 18 6 78 -45 41 -35 198 -169 349 -298z
m4236 260 c6 -41 12 -114 14 -161 l2 -85 -365 -308 -365 -308 -3 181 -2 182
27 24 c16 13 172 147 348 298 190 163 323 270 327 263 3 -6 11 -45 17 -86z"/>
<path d="M3005 3101 c-75 -14 -124 -50 -161 -121 -17 -31 -19 -63 -22 -259 -2
-138 1 -250 8 -290 26 -148 122 -275 259 -339 67 -32 87 -37 171 -40 78 -3
106 0 159 18 158 53 268 173 306 332 18 79 21 490 4 549 -16 51 -62 105 -112
132 -40 21 -55 22 -307 24 -146 1 -283 -2 -305 -6z m523 -200 c11 -6 13 -56
10 -237 -3 -214 -4 -232 -25 -270 -47 -88 -112 -133 -204 -141 -88 -8 -144 11
-205 71 -76 74 -84 109 -84 367 0 157 3 209 13 212 21 9 481 7 495 -2z"/>
<path d="M1010 1529 c-61 -24 -84 -82 -56 -137 20 -38 44 -52 91 -52 50 0 95
44 95 94 0 65 -72 117 -130 95z"/>
</g>
</svg>
