<?xml version="1.0" standalone="no"?>
<!DOCTYPE svg PUBLIC "-//W3C//DTD SVG 20010904//EN"
 "http://www.w3.org/TR/2001/REC-SVG-20010904/DTD/svg10.dtd">
<svg version="1.0" xmlns="http://www.w3.org/2000/svg"
 width="300.000000pt" height="168.000000pt" viewBox="0 0 300.000000 168.000000"
 preserveAspectRatio="xMidYMid meet">

<g transform="translate(0.000000,168.000000) scale(0.100000,-0.100000)"
fill="#000000" stroke="none">
<path d="M0 840 l0 -840 1023 1 c562 0 1016 3 1009 6 -10 4 -10 8 -1 20 10 11
10 14 -2 11 -15 -3 -16 3 -4 41 4 14 3 21 -2 18 -5 -3 -7 7 -5 24 5 33 22 40
22 9 0 -11 5 -20 11 -20 7 0 10 -12 7 -30 -3 -17 -1 -30 4 -30 13 0 9 -38 -5
-43 -6 -3 203 -6 466 -6 l477 -1 0 500 0 500 -227 0 c-126 0 -238 3 -250 6
-18 5 -22 13 -20 38 2 29 0 31 -35 32 -35 1 -38 -2 -44 -31 -4 -22 -13 -34
-32 -41 -30 -11 -718 -19 -764 -9 -22 5 -28 12 -28 34 0 23 4 27 28 26 29 0
38 25 12 33 -13 5 -13 3 -1 -11 17 -21 5 -22 -16 -2 -11 12 -19 13 -28 5 -10
-8 -15 -7 -19 2 -5 10 -7 10 -12 1 -3 -7 -14 -13 -25 -13 -15 0 -19 -7 -19
-40 l0 -39 -431 -1 c-310 0 -435 3 -445 11 -11 9 -14 9 -14 0 0 -25 -18 0 -24
34 -7 33 -9 35 -46 35 -39 0 -39 -1 -33 -30 4 -22 2 -30 -8 -30 -11 0 -11 -2
1 -10 10 -6 -74 -10 -247 -10 l-263 0 0 33 c0 17 7 113 15 212 8 99 15 184 15
189 0 5 353 5 808 1 1025 -8 2152 2 2152 21 0 7 -8 15 -17 17 -17 4 -17 5 0 6
25 2 21 19 -5 23 -13 2 -75 0 -138 -4 -170 -9 -400 -9 -400 1 0 4 9 20 21 35
11 14 17 30 14 36 -3 5 -1 10 4 10 6 0 11 10 11 22 0 21 0 21 -14 2 -13 -17
-15 -17 -21 -2 -4 9 -8 23 -9 32 -1 8 -10 24 -21 36 -18 20 -23 20 -788 20
-686 0 -768 -2 -763 -16 4 -10 2 -13 -6 -8 -8 5 -9 -2 -4 -22 l6 -29 -15 28
c-9 15 -13 32 -10 37 3 6 -158 9 -420 10 l-425 0 0 -840z m1045 810 c4 -6 -6
-8 -24 -6 -20 2 -32 -2 -36 -13 -5 -12 -8 -13 -14 -2 -7 10 -12 8 -24 -10 -16
-22 -10 -50 13 -64 16 -10 12 -25 -5 -19 -9 4 -19 -3 -26 -20 -14 -29 -29 -34
-29 -10 0 8 -4 13 -9 9 -13 -7 -26 16 -14 24 16 10 26 51 13 51 -21 0 -4 23
18 25 12 1 30 9 39 17 31 27 86 37 98 18z m137 -12 c-14 -14 -42 -20 -42 -8 0
5 8 11 18 13 31 8 36 7 24 -5z m1228 2 c0 -5 -5 -10 -11 -10 -5 0 -7 5 -4 10
3 6 8 10 11 10 2 0 4 -4 4 -10z m-1120 -61 c0 -4 -9 -7 -20 -6 -22 1 -24 6
-13 33 6 16 7 16 20 -2 7 -10 13 -21 13 -25z m-81 12 c14 -25 1 -35 -15 -13
-16 20 -17 32 -4 32 5 0 14 -8 19 -19z m-66 -28 c-9 -23 -20 -14 -15 13 3 17
7 22 12 13 5 -7 6 -18 3 -26z m78 -56 c-8 -8 -11 -4 -11 14 0 33 14 47 18 19
2 -12 -1 -27 -7 -33z m619 43 c0 -5 -4 -10 -10 -10 -5 0 -10 5 -10 10 0 6 5
10 10 10 6 0 10 -4 10 -10z m456 -27 c-10 -10 -19 5 -10 18 6 11 8 11 12 0 2
-7 1 -15 -2 -18z m-736 -4 c0 -6 -4 -7 -10 -4 -5 3 -10 11 -10 16 0 6 5 7 10
4 6 -3 10 -11 10 -16z m-716 -14 c-5 -12 -34 -17 -34 -5 0 11 9 17 24 17 8 0
12 -6 10 -12z m140 -1 c23 -9 20 -23 -4 -17 -11 3 -20 9 -20 14 0 11 3 11 24
3z m886 -9 c-7 -8 -17 -12 -22 -9 -6 4 -5 10 3 15 22 14 33 10 19 -6z m-453
-31 c-3 -3 -12 -4 -19 -1 -8 3 -5 6 6 6 11 1 17 -2 13 -5z m403 -604 c0 -5
-132 -9 -292 -10 -161 -1 -323 -3 -360 -6 -41 -2 -68 0 -68 6 0 6 101 11 273
13 149 1 311 3 360 4 48 0 87 -3 87 -7z m-50 -26 c-57 -7 -520 -9 -520 -2 0 5
123 7 273 7 149 -1 261 -3 247 -5z m-640 -279 c0 -8 -4 -15 -10 -15 -5 0 -10
7 -10 15 0 8 5 15 10 15 6 0 10 -7 10 -15z m57 -7 c-3 -8 -6 -5 -6 6 -1 11 2
17 5 13 3 -3 4 -12 1 -19z m98 2 c3 -5 1 -10 -4 -10 -6 0 -11 5 -11 10 0 6 2
10 4 10 3 0 8 -4 11 -10z m1125 -35 c0 -8 -2 -15 -4 -15 -2 0 -6 7 -10 15 -3
8 -1 15 4 15 6 0 10 -7 10 -15z m60 -6 c0 -6 -4 -7 -10 -4 -5 3 -10 11 -10 16
0 6 5 7 10 4 6 -3 10 -11 10 -16z m-1342 -44 c-1 -62 -16 -57 -16 5 -1 28 3
48 8 45 5 -3 9 -26 8 -50z m201 -27 c1 -25 -36 -23 -49 2 -13 24 -2 50 11 29
6 -10 10 -9 15 6 7 18 8 18 15 -1 4 -10 8 -27 8 -36z m-281 -13 c-3 -3 -9 2
-12 12 -6 14 -5 15 5 6 7 -7 10 -15 7 -18z m462 1 c0 -3 -4 -8 -10 -11 -5 -3
-10 -1 -10 4 0 6 5 11 10 11 6 0 10 -2 10 -4z m440 -32 c0 -14 -4 -23 -9 -20
-5 3 -7 15 -4 26 7 28 13 25 13 -6z m-901 -28 c-3 -3 -11 5 -18 17 -13 21 -12
21 5 5 10 -10 16 -20 13 -22z m991 -163 c0 -15 -6 -23 -16 -23 -12 0 -14 5 -9
18 4 9 7 26 7 37 -1 16 1 17 8 5 5 -8 10 -25 10 -37z m77 -185 c-3 -8 -6 -5
-6 6 -1 11 2 17 5 13 3 -3 4 -12 1 -19z"/>
<path d="M914 1555 c-1 -14 2 -25 7 -25 5 0 9 7 9 15 0 8 0 18 1 22 0 4 -3 9
-8 10 -4 2 -9 -8 -9 -22z"/>
<path d="M2845 1670 c-8 -13 15 -13 35 0 12 8 11 10 -7 10 -12 0 -25 -4 -28
-10z"/>
<path d="M2927 1666 c-3 -8 1 -20 9 -26 12 -10 14 -8 14 14 0 28 -14 35 -23
12z"/>
<path d="M2970 1660 c0 -19 11 -26 23 -14 8 8 -3 34 -14 34 -5 0 -9 -9 -9 -20z"/>
<path d="M2869 1623 c-13 -16 -12 -17 4 -4 16 13 21 21 13 21 -2 0 -10 -8 -17
-17z"/>
<path d="M2895 1609 c-4 -6 -5 -12 -2 -15 2 -3 7 2 10 11 7 17 1 20 -8 4z"/>
<path d="M126 1344 c-3 -26 -6 -66 -6 -90 l0 -44 66 0 c48 0 65 3 62 13 -3 7
-25 13 -52 15 -38 3 -46 6 -42 18 3 9 6 20 6 25 0 4 7 6 15 3 20 -8 65 4 65
16 0 6 -18 10 -40 10 -36 0 -40 3 -40 25 0 23 3 25 50 25 38 0 50 4 50 15 0
12 -14 15 -64 15 l-63 0 -7 -46z"/>
<path d="M290 1355 c0 -8 -4 -15 -10 -15 -5 0 -10 -7 -10 -15 0 -8 5 -15 10
-15 6 0 10 -20 10 -44 0 -46 10 -57 53 -55 l22 0 -22 16 c-31 21 -33 83 -3 83
11 0 20 7 20 15 0 8 -6 15 -14 15 -8 0 -16 7 -20 15 -3 8 -12 15 -21 15 -8 0
-15 -7 -15 -15z"/>
<path d="M392 1320 c-24 -23 -30 -78 -10 -98 17 -17 83 -15 98 3 18 22 4 31
-24 15 -25 -13 -56 -8 -56 9 0 6 21 11 48 13 44 3 47 5 44 28 -5 49 -61 66
-100 30z m76 -27 c2 -9 -7 -13 -27 -13 -21 0 -31 5 -31 16 0 19 51 16 58 -3z"/>
<path d="M552 1328 c-43 -21 -43 -93 1 -118 24 -13 30 -13 54 0 31 18 42 40
19 40 -9 0 -16 -5 -16 -11 0 -6 -12 -9 -27 -7 -22 2 -29 9 -31 29 -4 37 21 56
53 39 34 -18 46 -3 16 21 -26 21 -36 22 -69 7z"/>
<path d="M2310 1301 c0 -12 -5 -19 -12 -16 -23 8 -40 -11 -36 -41 2 -25 8 -29
36 -32 l32 -3 0 50 c0 27 -4 53 -10 56 -5 3 -10 -3 -10 -14z m-2 -53 c-2 -13
-7 -23 -13 -23 -5 0 -11 10 -13 23 -2 15 2 22 13 22 11 0 15 -7 13 -22z"/>
<path d="M2464 1305 c-10 -25 3 -42 35 -48 17 -4 31 -11 31 -17 0 -14 -43 -13
-58 2 -9 9 -12 8 -12 -4 0 -28 59 -39 79 -14 17 20 3 43 -30 50 -16 3 -29 10
-29 16 0 13 27 13 35 0 9 -15 25 -12 25 4 0 27 -67 37 -76 11z"/>
<path d="M2560 1310 c0 -5 5 -10 11 -10 5 0 7 5 4 10 -3 6 -8 10 -11 10 -2 0
-4 -4 -4 -10z"/>
<path d="M2590 1278 c0 -43 13 -77 23 -62 8 14 -4 104 -14 104 -5 0 -9 -19 -9
-42z"/>
<path d="M2779 1278 c-1 -35 -2 -38 -8 -18 -5 19 -13 25 -36 25 -26 0 -30 -4
-30 -29 0 -38 27 -56 56 -38 17 11 23 11 29 2 13 -22 22 8 12 42 -5 18 -7 39
-5 46 3 6 0 12 -6 12 -6 0 -11 -19 -12 -42z m-34 -8 c3 -5 -1 -10 -10 -10 -9
0 -13 5 -10 10 3 6 8 10 10 10 2 0 7 -4 10 -10z m10 -31 c-7 -11 -35 -12 -35
-1 0 4 9 8 20 9 11 1 18 -2 15 -8z"/>
<path d="M749 1261 c-2 -28 -1 -51 4 -51 4 0 7 9 7 19 0 15 8 21 33 23 27 2
32 7 32 28 0 22 -5 25 -36 28 l-37 3 -3 -50z m55 33 c13 -5 14 -9 5 -20 -15
-18 -35 -18 -42 0 -9 23 7 32 37 20z"/>
<path d="M987 1297 c-2 -7 -1 -30 3 -52 5 -28 8 -32 9 -14 0 14 6 30 13 37 9
9 9 12 -1 12 -11 0 -11 3 -1 15 10 12 10 15 -3 15 -8 0 -17 -6 -20 -13z"/>
<path d="M1110 1260 c0 -27 5 -50 10 -50 6 0 10 11 10 24 0 18 5 24 25 24 20
0 25 -6 25 -24 0 -13 5 -24 10 -24 6 0 10 24 10 53 0 35 -3 47 -9 37 -6 -8 -7
-18 -5 -22 3 -4 -9 -8 -25 -8 -24 0 -31 4 -31 20 0 11 -4 20 -10 20 -5 0 -10
-22 -10 -50z"/>
<path d="M1385 1300 c-3 -5 -2 -10 4 -10 5 0 13 5 16 10 3 6 2 10 -4 10 -5 0
-13 -4 -16 -10z"/>
<path d="M1530 1299 c0 -5 5 -7 10 -4 6 3 10 8 10 11 0 2 -4 4 -10 4 -5 0 -10
-5 -10 -11z"/>
<path d="M1691 1273 c-8 -21 -16 -44 -18 -50 -3 -7 0 -13 6 -13 6 0 11 7 11
15 0 21 40 19 56 -2 21 -28 17 2 -6 47 -11 22 -24 40 -28 40 -4 0 -14 -17 -21
-37z m39 -15 c0 -5 -7 -8 -15 -8 -17 0 -18 2 -9 25 5 13 8 14 15 3 5 -7 9 -16
9 -20z"/>
<path d="M2096 1302 c-12 -19 5 -92 22 -92 12 0 12 3 2 15 -7 8 -10 25 -7 37
7 26 -7 56 -17 40z"/>
<path d="M2833 1293 c-15 -5 -18 -83 -4 -83 6 0 11 14 13 31 3 29 6 32 43 34
l40 3 -32 -14 c-18 -8 -33 -18 -33 -23 0 -16 27 -31 54 -29 22 2 26 7 26 34 0
42 -22 61 -55 46 -15 -7 -25 -8 -25 -2 0 11 -7 11 -27 3z m87 -53 c0 -5 -7
-10 -15 -10 -8 0 -15 5 -15 10 0 6 7 10 15 10 8 0 15 -4 15 -10z"/>
<path d="M868 1282 c-13 -2 -18 -13 -17 -40 l1 -37 8 29 c5 16 15 33 22 37 16
10 8 16 -14 11z"/>
<path d="M914 1275 c-12 -8 -15 -19 -10 -39 5 -22 11 -27 34 -24 22 2 28 9 30
34 2 24 -1 33 -17 37 -11 3 -28 -1 -37 -8z m34 -27 c-2 -13 -7 -23 -13 -23 -5
0 -11 10 -13 23 -2 15 2 22 13 22 11 0 15 -7 13 -22z"/>
<path d="M1864 1276 c-15 -12 -16 -17 -7 -27 9 -9 9 -18 2 -31 -16 -29 -3 -48
31 -48 24 0 30 4 30 21 0 13 -8 23 -20 26 -19 5 -19 6 -4 18 10 7 19 22 21 34
4 25 -23 29 -53 7z m36 -16 c0 -5 -7 -10 -15 -10 -8 0 -15 5 -15 10 0 6 7 10
15 10 8 0 15 -4 15 -10z m5 -70 c-3 -5 -13 -10 -21 -10 -8 0 -14 5 -14 10 0 6
9 10 21 10 11 0 17 -4 14 -10z"/>
<path d="M2031 1281 c-17 -11 -7 -41 14 -41 8 0 15 -5 15 -11 0 -6 -9 -8 -20
-4 -11 4 -20 2 -20 -4 0 -6 14 -11 30 -11 40 0 42 34 3 49 l-28 11 28 -4 c29
-4 37 8 11 18 -19 7 -16 8 -33 -3z"/>
<path d="M2152 1281 c-8 -5 -12 -21 -10 -37 2 -23 9 -30 29 -32 22 -3 28 2 33
25 6 20 3 31 -10 40 -21 15 -25 16 -42 4z m36 -34 c2 -10 -3 -17 -11 -17 -16
0 -30 24 -19 34 10 10 27 1 30 -17z"/>
<path d="M2347 1283 c-15 -14 -5 -23 21 -18 l27 5 -28 -11 c-41 -16 -32 -43
16 -47 37 -3 38 -2 32 25 -4 15 -8 34 -11 41 -4 13 -46 17 -57 5z m48 -43 c3
-6 -1 -13 -10 -16 -19 -8 -30 0 -20 15 8 14 22 14 30 1z"/>
<path d="M2560 1250 c0 -22 5 -40 10 -40 6 0 10 18 10 40 0 22 -4 40 -10 40
-5 0 -10 -18 -10 -40z"/>
<path d="M2620 1285 c0 -11 34 -75 40 -75 4 0 14 18 23 40 13 34 13 40 1 40
-8 0 -14 -9 -14 -20 0 -11 -4 -20 -9 -20 -5 0 -11 9 -14 20 -4 17 -27 30 -27
15z"/>
<path d="M1224 1266 c-12 -31 0 -51 31 -51 27 0 30 3 30 30 0 25 -4 30 -28 33
-17 2 -29 -2 -33 -12z m46 -21 c0 -16 -6 -25 -15 -25 -9 0 -15 9 -15 25 0 16
6 25 15 25 9 0 15 -9 15 -25z"/>
<path d="M1310 1245 c0 -19 4 -35 9 -35 5 0 9 12 9 26 0 15 6 30 13 35 10 6 8
9 -8 9 -20 0 -23 -5 -23 -35z"/>
<path d="M1365 1270 c-4 -7 2 -9 22 -5 l28 6 -27 -16 c-40 -23 -36 -45 8 -45
34 0 35 1 32 33 -2 26 -8 33 -30 35 -14 2 -29 -2 -33 -8z m45 -40 c0 -5 -9
-10 -21 -10 -11 0 -17 5 -14 10 3 6 13 10 21 10 8 0 14 -4 14 -10z"/>
<path d="M1445 1261 c-9 -31 5 -52 33 -49 14 2 28 10 30 18 5 13 3 13 -12 1
-12 -10 -20 -11 -28 -3 -17 17 -1 44 22 37 11 -4 20 -2 20 4 0 20 -58 13 -65
-8z"/>
<path d="M1530 1247 c0 -20 4 -37 8 -37 9 0 7 58 -2 67 -3 4 -6 -10 -6 -30z"/>
<path d="M1566 1271 c-4 -6 -4 -22 0 -36 5 -21 12 -25 33 -23 22 2 26 8 26 33
0 25 -4 31 -27 33 -14 2 -29 -1 -32 -7z m48 -18 c8 -19 -8 -38 -23 -29 -16 10
-13 46 3 46 8 0 17 -8 20 -17z"/>
<path d="M1770 1261 c0 -37 12 -51 41 -51 26 0 29 3 29 35 0 19 -4 35 -10 35
-5 0 -10 -13 -10 -30 0 -20 -5 -30 -15 -30 -10 0 -15 10 -15 30 0 17 -4 30
-10 30 -5 0 -10 -9 -10 -19z"/>
<path d="M1943 1250 c2 -31 5 -35 30 -35 15 0 27 3 27 8 0 4 -1 19 -1 35 l-1
27 -7 -29 c-9 -41 -26 -43 -39 -4 l-11 33 2 -35z"/>
<path d="M1030 1220 c0 -5 5 -10 10 -10 6 0 10 5 10 10 0 6 -4 10 -10 10 -5 0
-10 -4 -10 -10z"/>
<path d="M2110 1160 l-755 -5 793 -3 c523 -1 792 1 792 8 0 6 -17 9 -37 8 -21
-2 -378 -5 -793 -8z"/>
<path d="M247 1153 c73 -2 193 -2 265 0 73 1 14 3 -132 3 -146 0 -205 -2 -133
-3z"/>
<path d="M1247 1113 c-16 -15 -6 -43 18 -49 16 -4 25 -14 26 -28 1 -20 1 -20
7 -1 6 16 16 20 51 20 48 0 66 19 29 31 l-23 8 25 7 c21 6 22 7 5 8 -12 1 -26
-4 -33 -11 -9 -9 -12 -9 -12 0 0 20 -37 13 -52 -10 -8 -12 -19 -18 -26 -14
-18 11 -14 34 6 39 14 4 14 5 1 6 -9 0 -19 -2 -22 -6z m88 -23 c3 -5 4 -14 0
-20 -8 -13 -35 -1 -35 16 0 16 26 19 35 4z m55 -25 c0 -3 -11 -5 -25 -5 -17 0
-23 4 -19 15 5 11 11 12 25 4 10 -5 19 -12 19 -14z"/>
<path d="M1610 1101 c0 -4 11 -6 25 -3 14 2 25 6 25 8 0 2 -11 4 -25 4 -14 0
-25 -4 -25 -9z"/>
<path d="M1768 1103 c7 -3 16 -2 19 1 4 3 -2 6 -13 5 -11 0 -14 -3 -6 -6z"/>
<path d="M1670 1066 c0 -17 2 -18 10 -6 5 8 10 11 10 5 0 -5 13 -11 29 -12 23
-2 28 2 24 15 -3 12 -15 17 -39 18 -28 0 -34 -3 -34 -20z"/>
<path d="M1752 1075 c4 -25 68 -36 68 -11 0 23 -18 28 -29 9 -9 -17 -11 -17
-26 2 l-16 20 3 -20z"/>
</g>
</svg>
